<svg xmlns="http://www.w3.org/2000/svg" viewBox="0 0 160 160" width="160" height="160"><rect width="160" height="160" rx="36" fill="#4F78DB"></rect><rect x="22" y="67" width="116" height="34" rx="17" fill="#fff" opacity="0.16"></rect><circle cx="45" cy="52" r="11" fill="none" stroke="#fff" stroke-width="5" opacity="0.8"></circle><rect x="66" y="45.5" width="58" height="13" rx="6.5" fill="#fff" opacity="0.42"></rect><circle cx="45" cy="84" r="13.5" fill="#fff"></circle><circle cx="45" cy="84" r="6" fill="#4F78DB"></circle><rect x="66" y="77.5" width="58" height="13" rx="6.5" fill="#fff"></rect><circle cx="45" cy="116" r="11" fill="none" stroke="#fff" stroke-width="5" opacity="0.8"></circle><rect x="66" y="109.5" width="58" height="13" rx="6.5" fill="#fff" opacity="0.42"></rect><circle cx="124" cy="124" r="27" fill="#4F78DB"></circle><circle cx="124" cy="124" r="21" fill="#fff"></circle><path d="M113.41 131.06L113.41 117.36L116.59 117.36L116.59 123.26L116.36 123.26Q116.36 121.16 116.89 119.76Q117.41 118.36 118.46 117.65Q119.51 116.94 121.04 116.94L121.21 116.94Q122.76 116.94 123.8 117.65Q124.84 118.36 125.38 119.76Q125.91 121.16 125.91 123.26L124.94 123.26Q124.94 121.16 125.48 119.76Q126.01 118.36 127.06 117.65Q128.11 116.94 129.64 116.94L129.81 116.94Q131.36 116.94 132.43 117.65Q133.49 118.36 134.04 119.76Q134.59 121.16 134.59 123.26L134.59 131.06L130.59 131.06L130.59 123.04Q130.59 121.91 130 121.21Q129.41 120.51 128.34 120.51Q127.26 120.51 126.64 121.23Q126.01 121.94 126.01 123.11L126.01 131.06L121.99 131.06L121.99 123.04Q121.99 121.91 121.4 121.21Q120.81 120.51 119.76 120.51Q118.66 120.51 118.04 121.23Q117.41 121.94 117.41 123.11L117.41 131.06Z" fill="#4F78DB"></path></svg>
