<svg xmlns="http://www.w3.org/2000/svg" viewBox="-16 -16 299.17 301.95" width="299.17" height="301.95"><svg x="33.58" y="0" width="200" height="200" viewBox="0 0 160 160" overflow="visible"><rect width="160" height="160" rx="36" fill="#4F78DB"></rect><g transform="translate(-14.4,-15.12) scale(1.18)"><rect x="22" y="67" width="116" height="34" rx="17" fill="#fff" opacity=".16"></rect><circle cx="45" cy="52" r="11" fill="none" stroke="#fff" stroke-width="5" opacity=".8"></circle><rect x="66" y="45.5" width="58" height="13" rx="6.5" fill="#fff" opacity=".42"></rect><circle cx="45" cy="84" r="13.5" fill="#fff"></circle><circle cx="45" cy="84" r="6" fill="#4F78DB"></circle><rect x="66" y="77.5" width="58" height="13" rx="6.5" fill="#fff"></rect><circle cx="45" cy="116" r="11" fill="none" stroke="#fff" stroke-width="5" opacity=".8"></circle><rect x="66" y="109.5" width="58" height="13" rx="6.5" fill="#fff" opacity=".42"></rect></g><circle cx="117.5" cy="117.5" r="42.12" fill="#4F78DB"></circle><circle cx="117.5" cy="117.5" r="32.76" fill="#fff"></circle><g transform="translate(81.92,81.92) scale(0.139)" fill="#4F78DB"><path d="M406.3 316.6l-67.9 33.9l-19.4-9.7l-49.1-73.6l58.8 88.2l-67.8 33.9l-155.2-77.6V156.6l67.9-33.9l66.3 99.5l98.5-65.6l67.9-33.9z"></path><path fill="#fff" opacity=".5" d="M173.6 122.7l155.1 232.7l-67.8 33.9l-155.2-232.7zm164.8 33.9v193.9l67.9-33.9V122.7z"></path></g></svg><g transform="translate(0,261.75)"><path d="M3.49 0L3.49 -22.1L7.34 -22.1L7.34 -12.59L6.89 -12.59Q6.89 -15.87 7.73 -18.12Q8.57 -20.38 10.27 -21.57Q11.97 -22.76 14.51 -22.76L14.72 -22.76Q17.3 -22.76 19 -21.57Q20.71 -20.38 21.55 -18.12Q22.39 -15.87 22.39 -12.59L21.07 -12.59Q21.07 -15.87 21.94 -18.12Q22.8 -20.38 24.52 -21.57Q26.24 -22.76 28.78 -22.76L28.99 -22.76Q31.57 -22.76 33.29 -21.57Q35.01 -20.38 35.88 -18.12Q36.74 -15.87 36.74 -12.59L36.74 0L31.9 0L31.9 -13.28Q31.9 -15.66 30.71 -17.01Q29.52 -18.37 27.39 -18.37Q25.17 -18.37 23.86 -16.95Q22.55 -15.54 22.55 -13.08L22.55 0L17.71 0L17.71 -13.28Q17.71 -15.66 16.52 -17.01Q15.33 -18.37 13.2 -18.37Q10.99 -18.37 9.66 -16.95Q8.32 -15.54 8.32 -13.08L8.32 0Z M57.89 0L50.06 -10.29L46.62 -10.29L56.33 -22.1L61.42 -22.1L52.48 -11.32L52.69 -13.82L63.43 0ZM42.56 0L42.56 -29.93L47.4 -29.93L47.4 0Z M74.7 0.74Q72.37 0.74 70.4 -0.12Q68.43 -0.98 66.99 -2.54Q65.56 -4.1 64.76 -6.15Q63.96 -8.2 63.96 -10.62L63.96 -11.4Q63.96 -13.78 64.74 -15.85Q65.52 -17.92 66.91 -19.48Q68.31 -21.03 70.25 -21.91Q72.2 -22.8 74.58 -22.8Q77.12 -22.8 79.15 -21.71Q81.18 -20.62 82.43 -18.39Q83.68 -16.15 83.8 -12.71L82.16 -14.96L82.16 -29.93L86.96 -29.93L86.96 0L83.15 0L83.15 -9.59L84.21 -9.59Q84.09 -6.03 82.76 -3.73Q81.43 -1.43 79.34 -0.35Q77.24 0.74 74.7 0.74ZM75.65 -3.4Q77.45 -3.4 78.97 -4.22Q80.48 -5.04 81.41 -6.62Q82.33 -8.2 82.33 -10.33L82.33 -12.09Q82.33 -14.19 81.39 -15.64Q80.44 -17.1 78.93 -17.88Q77.41 -18.65 75.6 -18.65Q73.6 -18.65 72.06 -17.71Q70.52 -16.77 69.66 -15.05Q68.8 -13.32 68.8 -11.03Q68.8 -8.69 69.68 -6.97Q70.56 -5.25 72.12 -4.33Q73.68 -3.4 75.65 -3.4Z M103.56 0.78Q100.64 0.78 98.43 -0.18Q96.22 -1.15 94.68 -2.77Q93.14 -4.39 92.36 -6.42Q91.58 -8.45 91.58 -10.62L91.58 -11.44Q91.58 -13.61 92.4 -15.66Q93.22 -17.71 94.76 -19.33Q96.3 -20.95 98.51 -21.89Q100.73 -22.84 103.56 -22.84Q106.38 -22.84 108.58 -21.89Q110.77 -20.95 112.33 -19.33Q113.89 -17.71 114.69 -15.66Q115.49 -13.61 115.49 -11.44L115.49 -10.62Q115.49 -8.45 114.71 -6.42Q113.93 -4.39 112.41 -2.77Q110.89 -1.15 108.68 -0.18Q106.47 0.78 103.56 0.78ZM103.56 -3.44Q105.81 -3.44 107.41 -4.45Q109.01 -5.45 109.83 -7.18Q110.65 -8.9 110.65 -11.03Q110.65 -13.2 109.81 -14.92Q108.97 -16.65 107.37 -17.63Q105.77 -18.61 103.56 -18.61Q101.34 -18.61 99.74 -17.63Q98.14 -16.65 97.28 -14.92Q96.42 -13.2 96.42 -11.03Q96.42 -8.9 97.26 -7.18Q98.1 -5.45 99.7 -4.45Q101.3 -3.44 103.56 -3.44Z M129.73 0.78Q126.86 0.78 124.77 -0.2Q122.68 -1.19 121.31 -2.85Q119.94 -4.51 119.24 -6.54Q118.54 -8.57 118.54 -10.66L118.54 -11.4Q118.54 -13.57 119.24 -15.6Q119.94 -17.63 121.35 -19.27Q122.76 -20.91 124.83 -21.87Q126.91 -22.84 129.69 -22.84Q132.52 -22.84 134.76 -21.77Q136.99 -20.7 138.34 -18.76Q139.7 -16.81 139.86 -14.19L135.23 -14.19Q134.98 -16.07 133.55 -17.34Q132.11 -18.61 129.69 -18.61Q127.56 -18.61 126.17 -17.63Q124.77 -16.65 124.08 -14.92Q123.38 -13.2 123.38 -11.03Q123.38 -8.9 124.06 -7.18Q124.73 -5.45 126.15 -4.47Q127.56 -3.49 129.73 -3.49Q131.42 -3.49 132.62 -4.08Q133.83 -4.67 134.55 -5.68Q135.27 -6.68 135.43 -7.99L140.11 -7.99Q139.98 -5.33 138.59 -3.38Q137.2 -1.43 134.9 -0.33Q132.6 0.78 129.73 0.78Z M151.86 0.7Q147.39 0.7 144.91 -1.21Q142.43 -3.12 142.31 -6.44L146.74 -6.44Q146.82 -5.21 148.01 -4.18Q149.2 -3.16 151.91 -3.16Q154.2 -3.16 155.51 -4.06Q156.82 -4.96 156.82 -6.31Q156.82 -7.54 155.84 -8.26Q154.86 -8.98 152.6 -9.18L150.43 -9.43Q147.03 -9.8 145.04 -11.42Q143.05 -13.04 143.05 -15.87Q143.05 -18.08 144.16 -19.6Q145.26 -21.11 147.21 -21.93Q149.16 -22.76 151.7 -22.76Q155.64 -22.76 158.05 -21.01Q160.47 -19.27 160.56 -15.91L156.13 -15.91Q156.09 -17.14 154.96 -18.02Q153.83 -18.9 151.7 -18.9Q149.65 -18.9 148.56 -18.08Q147.48 -17.26 147.48 -15.99Q147.48 -14.84 148.3 -14.19Q149.12 -13.53 150.96 -13.32L153.14 -13.12Q156.87 -12.71 159.06 -11.05Q161.25 -9.39 161.25 -6.44Q161.25 -4.31 160.06 -2.71Q158.88 -1.11 156.76 -0.2Q154.65 0.7 151.86 0.7Z M164.51 -9.39L164.51 -13.57L180.46 -13.57L180.46 -9.39Z " fill="#8AA8EE"></path><path d="M202.17 8.2L202.17 -6.56L203.77 -9.43Q203.69 -6.03 202.44 -3.77Q201.19 -1.52 199.14 -0.39Q197.09 0.74 194.55 0.74Q192.21 0.74 190.26 -0.16Q188.31 -1.07 186.92 -2.64Q185.53 -4.22 184.77 -6.29Q184.01 -8.36 184.01 -10.74L184.01 -11.52Q184.01 -13.9 184.77 -15.93Q185.53 -17.96 186.96 -19.52Q188.4 -21.07 190.36 -21.93Q192.33 -22.8 194.71 -22.8Q197.5 -22.8 199.59 -21.61Q201.68 -20.42 202.89 -18.14Q204.1 -15.87 204.18 -12.63L203.16 -12.63L203.16 -22.1L206.97 -22.1L206.97 8.2ZM195.65 -3.53Q197.5 -3.53 198.99 -4.35Q200.49 -5.17 201.41 -6.74Q202.33 -8.32 202.33 -10.45L202.33 -12.22Q202.33 -14.31 201.39 -15.78Q200.45 -17.26 198.93 -18.04Q197.42 -18.82 195.65 -18.82Q193.6 -18.82 192.06 -17.86Q190.53 -16.89 189.67 -15.15Q188.81 -13.41 188.81 -11.11Q188.81 -8.86 189.69 -7.13Q190.57 -5.41 192.11 -4.47Q193.64 -3.53 195.65 -3.53Z M220.73 0.7Q216.88 0.7 214.77 -1.84Q212.66 -4.39 212.66 -9.31L212.66 -22.1L217.49 -22.1L217.49 -8.65Q217.49 -6.35 218.77 -5.02Q220.04 -3.69 222.21 -3.69Q224.42 -3.69 225.82 -5.1Q227.21 -6.52 227.21 -8.98L227.21 -22.1L232.05 -22.1L232.05 0L228.24 0L228.24 -9.43L228.69 -9.43Q228.69 -6.11 227.83 -3.87Q226.97 -1.64 225.26 -0.47Q223.56 0.7 220.94 0.7Z M239.41 0L239.41 -22.1L244.21 -22.1L244.21 0ZM236.17 -18.41L236.17 -22.1L244.21 -22.1L244.21 -18.41ZM240.97 -25.17Q239.49 -25.17 238.77 -25.95Q238.06 -26.73 238.06 -27.96Q238.06 -29.15 238.77 -29.95Q239.49 -30.75 240.97 -30.75Q242.48 -30.75 243.2 -29.95Q243.92 -29.15 243.92 -27.96Q243.92 -26.73 243.2 -25.95Q242.48 -25.17 240.97 -25.17Z M249.06 0L249.06 -4.47L260.5 -18.2L260.5 -17.55L259.77 -18.61L260.38 -18.33L248.94 -18.33L248.94 -22.1L265.26 -22.1L265.26 -17.63L253.78 -3.89L253.78 -4.47L254.6 -3.36L253.98 -3.77L265.79 -3.77L265.79 0Z " fill="#EDEFF4"></path></g></svg>
