<svg xmlns="http://www.w3.org/2000/svg" viewBox="-14 -14 769.37 178" width="769.37" height="178"><svg x="0" y="0" width="150" height="150" viewBox="0 0 160 160" overflow="visible"><rect width="160" height="160" rx="36" fill="#4F78DB"></rect><rect x="22" y="67" width="116" height="34" rx="17" fill="#fff" opacity="0.16"></rect><circle cx="45" cy="52" r="11" fill="none" stroke="#fff" stroke-width="5" opacity="0.8"></circle><rect x="66" y="45.5" width="58" height="13" rx="6.5" fill="#fff" opacity="0.42"></rect><circle cx="45" cy="84" r="13.5" fill="#fff"></circle><circle cx="45" cy="84" r="6" fill="#4F78DB"></circle><rect x="66" y="77.5" width="58" height="13" rx="6.5" fill="#fff"></rect><circle cx="45" cy="116" r="11" fill="none" stroke="#fff" stroke-width="5" opacity="0.8"></circle><rect x="66" y="109.5" width="58" height="13" rx="6.5" fill="#fff" opacity="0.42"></rect><circle cx="124" cy="124" r="27" fill="#4F78DB"></circle><circle cx="124" cy="124" r="21" fill="#fff"></circle><path d="M113.41 131.06L113.41 117.36L116.59 117.36L116.59 123.26L116.36 123.26Q116.36 121.16 116.89 119.76Q117.41 118.36 118.46 117.65Q119.51 116.94 121.04 116.94L121.21 116.94Q122.76 116.94 123.8 117.65Q124.84 118.36 125.38 119.76Q125.91 121.16 125.91 123.26L124.94 123.26Q124.94 121.16 125.48 119.76Q126.01 118.36 127.06 117.65Q128.11 116.94 129.64 116.94L129.81 116.94Q131.36 116.94 132.43 117.65Q133.49 118.36 134.04 119.76Q134.59 121.16 134.59 123.26L134.59 131.06L130.59 131.06L130.59 123.04Q130.59 121.91 130 121.21Q129.41 120.51 128.34 120.51Q127.26 120.51 126.64 121.23Q126.01 121.94 126.01 123.11L126.01 131.06L121.99 131.06L121.99 123.04Q121.99 121.91 121.4 121.21Q120.81 120.51 119.76 120.51Q118.66 120.51 118.04 121.23Q117.41 121.94 117.41 123.11L117.41 131.06Z" fill="#4F78DB"></path></svg><g transform="translate(194,98.1)"><path d="M7.14 0L7.14 -45.28L15.04 -45.28L15.04 -25.79L14.11 -25.79Q14.11 -32.51 15.83 -37.13Q17.56 -41.75 21.04 -44.18Q24.53 -46.62 29.74 -46.62L30.16 -46.62Q35.45 -46.62 38.93 -44.18Q42.42 -41.75 44.14 -37.13Q45.86 -32.51 45.86 -25.79L43.18 -25.79Q43.18 -32.51 44.94 -37.13Q46.7 -41.75 50.23 -44.18Q53.76 -46.62 58.97 -46.62L59.39 -46.62Q64.68 -46.62 68.21 -44.18Q71.74 -41.75 73.5 -37.13Q75.26 -32.51 75.26 -25.79L75.26 0L65.35 0L65.35 -27.22Q65.35 -32.09 62.92 -34.86Q60.48 -37.63 56.11 -37.63Q51.58 -37.63 48.89 -34.73Q46.2 -31.84 46.2 -26.8L46.2 0L36.29 0L36.29 -27.22Q36.29 -32.09 33.85 -34.86Q31.42 -37.63 27.05 -37.63Q22.51 -37.63 19.78 -34.73Q17.05 -31.84 17.05 -26.8L17.05 0Z M118.61 0L102.56 -21.08L95.51 -21.08L115.42 -45.28L125.83 -45.28L107.52 -23.18L107.94 -28.31L129.95 0ZM87.19 0L87.19 -61.32L97.1 -61.32L97.1 0Z M153.05 1.51Q148.26 1.51 144.23 -0.25Q140.2 -2.02 137.26 -5.21Q134.32 -8.4 132.68 -12.6Q131.04 -16.8 131.04 -21.76L131.04 -23.35Q131.04 -28.22 132.64 -32.47Q134.23 -36.71 137.09 -39.9Q139.94 -43.09 143.93 -44.9Q147.92 -46.7 152.8 -46.7Q158 -46.7 162.16 -44.48Q166.32 -42.25 168.88 -37.67Q171.44 -33.1 171.7 -26.04L168.34 -30.66L168.34 -61.32L178.16 -61.32L178.16 0L170.35 0L170.35 -19.66L172.54 -19.66Q172.28 -12.35 169.55 -7.64Q166.82 -2.94 162.54 -0.71Q158.26 1.51 153.05 1.51ZM154.98 -6.97Q158.68 -6.97 161.78 -8.65Q164.89 -10.33 166.78 -13.57Q168.67 -16.8 168.67 -21.17L168.67 -24.78Q168.67 -29.06 166.74 -32.05Q164.81 -35.03 161.7 -36.62Q158.59 -38.22 154.9 -38.22Q150.78 -38.22 147.63 -36.29Q144.48 -34.36 142.72 -30.83Q140.95 -27.3 140.95 -22.6Q140.95 -17.81 142.76 -14.28Q144.56 -10.75 147.76 -8.86Q150.95 -6.97 154.98 -6.97Z M212.16 1.6Q206.2 1.6 201.66 -0.38Q197.13 -2.35 193.98 -5.67Q190.83 -8.99 189.23 -13.15Q187.64 -17.3 187.64 -21.76L187.64 -23.44Q187.64 -27.89 189.32 -32.09Q191 -36.29 194.15 -39.61Q197.3 -42.92 201.83 -44.86Q206.37 -46.79 212.16 -46.79Q217.96 -46.79 222.45 -44.86Q226.95 -42.92 230.14 -39.61Q233.33 -36.29 234.97 -32.09Q236.61 -27.89 236.61 -23.44L236.61 -21.76Q236.61 -17.3 235.01 -13.15Q233.42 -8.99 230.31 -5.67Q227.2 -2.35 222.66 -0.38Q218.13 1.6 212.16 1.6ZM212.16 -7.06Q216.78 -7.06 220.06 -9.11Q223.34 -11.17 225.02 -14.7Q226.7 -18.23 226.7 -22.6Q226.7 -27.05 224.97 -30.58Q223.25 -34.1 219.98 -36.12Q216.7 -38.14 212.16 -38.14Q207.63 -38.14 204.35 -36.12Q201.08 -34.1 199.31 -30.58Q197.55 -27.05 197.55 -22.6Q197.55 -18.23 199.27 -14.7Q200.99 -11.17 204.27 -9.11Q207.54 -7.06 212.16 -7.06Z M265.8 1.6Q259.92 1.6 255.63 -0.42Q251.35 -2.44 248.54 -5.84Q245.72 -9.24 244.29 -13.4Q242.87 -17.56 242.87 -21.84L242.87 -23.35Q242.87 -27.8 244.29 -31.96Q245.72 -36.12 248.62 -39.48Q251.52 -42.84 255.76 -44.81Q260 -46.79 265.71 -46.79Q271.51 -46.79 276.09 -44.6Q280.67 -42.42 283.44 -38.43Q286.21 -34.44 286.55 -29.06L277.05 -29.06Q276.55 -32.93 273.61 -35.53Q270.67 -38.14 265.71 -38.14Q261.35 -38.14 258.49 -36.12Q255.63 -34.1 254.21 -30.58Q252.78 -27.05 252.78 -22.6Q252.78 -18.23 254.16 -14.7Q255.55 -11.17 258.45 -9.16Q261.35 -7.14 265.8 -7.14Q269.24 -7.14 271.72 -8.36Q274.2 -9.58 275.67 -11.63Q277.14 -13.69 277.47 -16.38L287.05 -16.38Q286.8 -10.92 283.94 -6.93Q281.09 -2.94 276.38 -0.67Q271.68 1.6 265.8 1.6Z M311.14 1.43Q301.98 1.43 296.9 -2.48Q291.82 -6.38 291.56 -13.19L300.64 -13.19Q300.8 -10.67 303.24 -8.57Q305.68 -6.47 311.22 -6.47Q315.92 -6.47 318.61 -8.32Q321.3 -10.16 321.3 -12.94Q321.3 -15.46 319.28 -16.93Q317.27 -18.4 312.65 -18.82L308.2 -19.32Q301.22 -20.08 297.15 -23.39Q293.08 -26.71 293.08 -32.51Q293.08 -37.04 295.34 -40.15Q297.61 -43.26 301.6 -44.94Q305.59 -46.62 310.8 -46.62Q318.86 -46.62 323.82 -43.05Q328.78 -39.48 328.94 -32.59L319.87 -32.59Q319.79 -35.11 317.48 -36.92Q315.17 -38.72 310.8 -38.72Q306.6 -38.72 304.37 -37.04Q302.15 -35.36 302.15 -32.76Q302.15 -30.41 303.83 -29.06Q305.51 -27.72 309.29 -27.3L313.74 -26.88Q321.38 -26.04 325.88 -22.64Q330.37 -19.24 330.37 -13.19Q330.37 -8.82 327.94 -5.54Q325.5 -2.27 321.17 -0.42Q316.85 1.43 311.14 1.43Z M337.05 -19.24L337.05 -27.8L369.73 -27.8L369.73 -19.24Z " fill="#4F78DB"></path><path d="M414.2 16.8L414.2 -13.44L417.48 -19.32Q417.31 -12.35 414.75 -7.73Q412.19 -3.11 407.99 -0.8Q403.79 1.51 398.58 1.51Q393.79 1.51 389.8 -0.34Q385.81 -2.18 382.96 -5.42Q380.1 -8.65 378.55 -12.89Q376.99 -17.14 376.99 -22.01L376.99 -23.6Q376.99 -28.48 378.55 -32.63Q380.1 -36.79 383.04 -39.98Q385.98 -43.18 390.01 -44.94Q394.04 -46.7 398.92 -46.7Q404.63 -46.7 408.91 -44.27Q413.2 -41.83 415.67 -37.17Q418.15 -32.51 418.32 -25.87L416.22 -25.87L416.22 -45.28L424.03 -45.28L424.03 16.8ZM400.85 -7.22Q404.63 -7.22 407.69 -8.9Q410.76 -10.58 412.65 -13.82Q414.54 -17.05 414.54 -21.42L414.54 -25.03Q414.54 -29.32 412.61 -32.34Q410.68 -35.36 407.57 -36.96Q404.46 -38.56 400.85 -38.56Q396.65 -38.56 393.5 -36.58Q390.35 -34.61 388.58 -31.04Q386.82 -27.47 386.82 -22.76Q386.82 -18.14 388.63 -14.62Q390.43 -11.09 393.58 -9.16Q396.73 -7.22 400.85 -7.22Z M452.24 1.43Q444.34 1.43 440.01 -3.78Q435.69 -8.99 435.69 -19.07L435.69 -45.28L445.6 -45.28L445.6 -17.72Q445.6 -13.02 448.2 -10.29Q450.81 -7.56 455.26 -7.56Q459.8 -7.56 462.65 -10.46Q465.51 -13.36 465.51 -18.4L465.51 -45.28L475.42 -45.28L475.42 0L467.61 0L467.61 -19.32L468.53 -19.32Q468.53 -12.52 466.77 -7.94Q465 -3.36 461.52 -0.97Q458.03 1.43 452.66 1.43Z M490.5 0L490.5 -45.28L500.33 -45.28L500.33 0ZM483.86 -37.72L483.86 -45.28L500.33 -45.28L500.33 -37.72ZM493.69 -51.58Q490.67 -51.58 489.2 -53.17Q487.73 -54.77 487.73 -57.29Q487.73 -59.72 489.2 -61.36Q490.67 -63 493.69 -63Q496.8 -63 498.27 -61.36Q499.74 -59.72 499.74 -57.29Q499.74 -54.77 498.27 -53.17Q496.8 -51.58 493.69 -51.58Z M510.28 0L510.28 -9.16L533.72 -37.3L533.72 -35.95L532.2 -38.14L533.46 -37.55L510.03 -37.55L510.03 -45.28L543.46 -45.28L543.46 -36.12L519.94 -7.98L519.94 -9.16L521.62 -6.89L520.36 -7.73L544.55 -7.73L544.55 0Z " fill="#13161f"></path></g></svg>
