<svg xmlns="http://www.w3.org/2000/svg" viewBox="-14 -14 282.13 284.05" width="282.13" height="284.05"><svg x="32.07" y="0" width="190" height="190" viewBox="0 0 160 160" overflow="visible"><rect width="160" height="160" rx="36" fill="#4F78DB"></rect><rect x="22" y="67" width="116" height="34" rx="17" fill="#fff" opacity="0.16"></rect><circle cx="45" cy="52" r="11" fill="none" stroke="#fff" stroke-width="5" opacity="0.8"></circle><rect x="66" y="45.5" width="58" height="13" rx="6.5" fill="#fff" opacity="0.42"></rect><circle cx="45" cy="84" r="13.5" fill="#fff"></circle><circle cx="45" cy="84" r="6" fill="#4F78DB"></circle><rect x="66" y="77.5" width="58" height="13" rx="6.5" fill="#fff"></rect><circle cx="45" cy="116" r="11" fill="none" stroke="#fff" stroke-width="5" opacity="0.8"></circle><rect x="66" y="109.5" width="58" height="13" rx="6.5" fill="#fff" opacity="0.42"></rect><circle cx="124" cy="124" r="27" fill="#4F78DB"></circle><circle cx="124" cy="124" r="21" fill="#fff"></circle><path d="M113.41 131.06L113.41 117.36L116.59 117.36L116.59 123.26L116.36 123.26Q116.36 121.16 116.89 119.76Q117.41 118.36 118.46 117.65Q119.51 116.94 121.04 116.94L121.21 116.94Q122.76 116.94 123.8 117.65Q124.84 118.36 125.38 119.76Q125.91 121.16 125.91 123.26L124.94 123.26Q124.94 121.16 125.48 119.76Q126.01 118.36 127.06 117.65Q128.11 116.94 129.64 116.94L129.81 116.94Q131.36 116.94 132.43 117.65Q133.49 118.36 134.04 119.76Q134.59 121.16 134.59 123.26L134.59 131.06L130.59 131.06L130.59 123.04Q130.59 121.91 130 121.21Q129.41 120.51 128.34 120.51Q127.26 120.51 126.64 121.23Q126.01 121.94 126.01 123.11L126.01 131.06L121.99 131.06L121.99 123.04Q121.99 121.91 121.4 121.21Q120.81 120.51 119.76 120.51Q118.66 120.51 118.04 121.23Q117.41 121.94 117.41 123.11L117.41 131.06Z" fill="#4F78DB"></path></svg><g transform="translate(0,248.25)"><path d="M3.32 0L3.32 -21.02L6.98 -21.02L6.98 -11.97L6.55 -11.97Q6.55 -15.09 7.35 -17.24Q8.15 -19.38 9.77 -20.51Q11.39 -21.64 13.81 -21.64L14 -21.64Q16.46 -21.64 18.08 -20.51Q19.7 -19.38 20.49 -17.24Q21.29 -15.09 21.29 -11.97L20.05 -11.97Q20.05 -15.09 20.87 -17.24Q21.68 -19.38 23.32 -20.51Q24.96 -21.64 27.38 -21.64L27.57 -21.64Q30.03 -21.64 31.67 -20.51Q33.31 -19.38 34.13 -17.24Q34.94 -15.09 34.94 -11.97L34.94 0L30.34 0L30.34 -12.64Q30.34 -14.9 29.21 -16.18Q28.08 -17.47 26.05 -17.47Q23.95 -17.47 22.7 -16.13Q21.45 -14.78 21.45 -12.44L21.45 0L16.85 0L16.85 -12.64Q16.85 -14.9 15.72 -16.18Q14.59 -17.47 12.56 -17.47Q10.45 -17.47 9.18 -16.13Q7.92 -14.78 7.92 -12.44L7.92 0Z M55.07 0L47.62 -9.79L44.34 -9.79L53.59 -21.02L58.42 -21.02L49.92 -10.76L50.12 -13.14L60.33 0ZM40.48 0L40.48 -28.47L45.08 -28.47L45.08 0Z M71.06 0.7Q68.84 0.7 66.96 -0.12Q65.09 -0.94 63.73 -2.42Q62.36 -3.9 61.6 -5.85Q60.84 -7.8 60.84 -10.1L60.84 -10.84Q60.84 -13.1 61.58 -15.07Q62.32 -17.04 63.65 -18.52Q64.97 -20.01 66.83 -20.85Q68.68 -21.68 70.94 -21.68Q73.36 -21.68 75.29 -20.65Q77.22 -19.62 78.41 -17.49Q79.6 -15.37 79.72 -12.09L78.16 -14.23L78.16 -28.47L82.72 -28.47L82.72 0L79.09 0L79.09 -9.13L80.11 -9.13Q79.99 -5.73 78.72 -3.55Q77.45 -1.36 75.47 -0.33Q73.48 0.7 71.06 0.7ZM71.96 -3.24Q73.67 -3.24 75.11 -4.02Q76.56 -4.8 77.43 -6.3Q78.31 -7.8 78.31 -9.83L78.31 -11.5Q78.31 -13.49 77.42 -14.88Q76.52 -16.26 75.08 -17Q73.63 -17.74 71.92 -17.74Q70.01 -17.74 68.54 -16.85Q67.08 -15.95 66.26 -14.31Q65.44 -12.67 65.44 -10.49Q65.44 -8.27 66.28 -6.63Q67.12 -4.99 68.6 -4.11Q70.08 -3.24 71.96 -3.24Z M98.5 0.74Q95.74 0.74 93.63 -0.18Q91.52 -1.09 90.06 -2.63Q88.6 -4.17 87.86 -6.1Q87.12 -8.03 87.12 -10.1L87.12 -10.88Q87.12 -12.95 87.9 -14.9Q88.68 -16.85 90.14 -18.39Q91.6 -19.93 93.71 -20.83Q95.81 -21.72 98.5 -21.72Q101.2 -21.72 103.28 -20.83Q105.37 -19.93 106.85 -18.39Q108.33 -16.85 109.09 -14.9Q109.85 -12.95 109.85 -10.88L109.85 -10.1Q109.85 -8.03 109.11 -6.1Q108.37 -4.17 106.93 -2.63Q105.49 -1.09 103.38 -0.18Q101.27 0.74 98.5 0.74ZM98.5 -3.28Q100.65 -3.28 102.17 -4.23Q103.69 -5.19 104.47 -6.82Q105.25 -8.46 105.25 -10.49Q105.25 -12.56 104.45 -14.2Q103.65 -15.83 102.13 -16.77Q100.61 -17.71 98.5 -17.71Q96.4 -17.71 94.88 -16.77Q93.36 -15.83 92.54 -14.2Q91.72 -12.56 91.72 -10.49Q91.72 -8.46 92.52 -6.82Q93.32 -5.19 94.84 -4.23Q96.36 -3.28 98.5 -3.28Z M123.41 0.74Q120.68 0.74 118.69 -0.19Q116.7 -1.13 115.39 -2.71Q114.08 -4.29 113.42 -6.22Q112.76 -8.15 112.76 -10.14L112.76 -10.84Q112.76 -12.91 113.42 -14.84Q114.08 -16.77 115.43 -18.33Q116.78 -19.89 118.75 -20.81Q120.71 -21.72 123.37 -21.72Q126.06 -21.72 128.18 -20.71Q130.31 -19.69 131.6 -17.84Q132.88 -15.99 133.04 -13.49L128.63 -13.49Q128.4 -15.29 127.03 -16.5Q125.67 -17.71 123.37 -17.71Q121.34 -17.71 120.01 -16.77Q118.69 -15.83 118.02 -14.2Q117.36 -12.56 117.36 -10.49Q117.36 -8.46 118 -6.82Q118.65 -5.19 119.99 -4.25Q121.34 -3.31 123.41 -3.31Q125 -3.31 126.16 -3.88Q127.31 -4.45 127.99 -5.4Q128.67 -6.36 128.83 -7.6L133.27 -7.6Q133.16 -5.07 131.83 -3.22Q130.5 -1.36 128.32 -0.31Q126.14 0.74 123.41 0.74Z M144.46 0.66Q140.21 0.66 137.85 -1.15Q135.49 -2.96 135.37 -6.12L139.58 -6.12Q139.66 -4.95 140.79 -3.98Q141.92 -3 144.5 -3Q146.68 -3 147.93 -3.86Q149.18 -4.72 149.18 -6.01Q149.18 -7.18 148.24 -7.86Q147.3 -8.54 145.16 -8.74L143.09 -8.97Q139.85 -9.32 137.96 -10.86Q136.07 -12.4 136.07 -15.09Q136.07 -17.2 137.12 -18.64Q138.18 -20.08 140.03 -20.86Q141.88 -21.64 144.3 -21.64Q148.04 -21.64 150.35 -19.99Q152.65 -18.33 152.72 -15.13L148.51 -15.13Q148.47 -16.3 147.4 -17.14Q146.33 -17.98 144.3 -17.98Q142.35 -17.98 141.32 -17.2Q140.28 -16.42 140.28 -15.21Q140.28 -14.12 141.06 -13.49Q141.84 -12.87 143.6 -12.67L145.67 -12.48Q149.21 -12.09 151.3 -10.51Q153.39 -8.93 153.39 -6.12Q153.39 -4.09 152.26 -2.57Q151.13 -1.05 149.12 -0.19Q147.11 0.66 144.46 0.66Z M156.49 -8.93L156.49 -12.91L171.66 -12.91L171.66 -8.93Z " fill="#4F78DB"></path><path d="M192.31 7.8L192.31 -6.24L193.83 -8.97Q193.75 -5.73 192.56 -3.59Q191.37 -1.44 189.42 -0.37Q187.47 0.7 185.06 0.7Q182.83 0.7 180.98 -0.16Q179.13 -1.01 177.8 -2.52Q176.48 -4.02 175.75 -5.99Q175.03 -7.96 175.03 -10.22L175.03 -10.96Q175.03 -13.22 175.75 -15.15Q176.48 -17.08 177.84 -18.56Q179.21 -20.05 181.08 -20.86Q182.95 -21.68 185.21 -21.68Q187.86 -21.68 189.85 -20.55Q191.84 -19.42 192.99 -17.26Q194.14 -15.09 194.22 -12.01L193.25 -12.01L193.25 -21.02L196.87 -21.02L196.87 7.8ZM186.11 -3.35Q187.86 -3.35 189.29 -4.13Q190.71 -4.91 191.59 -6.42Q192.47 -7.92 192.47 -9.94L192.47 -11.62Q192.47 -13.61 191.57 -15.01Q190.67 -16.42 189.23 -17.16Q187.79 -17.9 186.11 -17.9Q184.16 -17.9 182.7 -16.98Q181.23 -16.07 180.41 -14.41Q179.6 -12.75 179.6 -10.57Q179.6 -8.42 180.43 -6.79Q181.27 -5.15 182.73 -4.25Q184.2 -3.35 186.11 -3.35Z M209.97 0.66Q206.3 0.66 204.29 -1.75Q202.28 -4.17 202.28 -8.85L202.28 -21.02L206.89 -21.02L206.89 -8.23Q206.89 -6.04 208.09 -4.78Q209.3 -3.51 211.37 -3.51Q213.48 -3.51 214.8 -4.86Q216.13 -6.2 216.13 -8.54L216.13 -21.02L220.73 -21.02L220.73 0L217.1 0L217.1 -8.97L217.53 -8.97Q217.53 -5.81 216.71 -3.69Q215.89 -1.56 214.28 -0.45Q212.66 0.66 210.16 0.66Z M227.73 0L227.73 -21.02L232.29 -21.02L232.29 0ZM224.65 -17.51L224.65 -21.02L232.29 -21.02L232.29 -17.51ZM229.21 -23.95Q227.81 -23.95 227.13 -24.69Q226.44 -25.43 226.44 -26.6Q226.44 -27.73 227.13 -28.49Q227.81 -29.25 229.21 -29.25Q230.66 -29.25 231.34 -28.49Q232.02 -27.73 232.02 -26.6Q232.02 -25.43 231.34 -24.69Q230.66 -23.95 229.21 -23.95Z M236.92 0L236.92 -4.25L247.8 -17.32L247.8 -16.69L247.09 -17.71L247.68 -17.43L236.8 -17.43L236.8 -21.02L252.32 -21.02L252.32 -16.77L241.4 -3.7L241.4 -4.25L242.18 -3.2L241.6 -3.59L252.83 -3.59L252.83 0Z " fill="#13161f"></path></g></svg>
